<?xml version="1.0" standalone="no"?>
<!DOCTYPE svg PUBLIC "-//W3C//DTD SVG 20010904//EN"
 "http://www.w3.org/TR/2001/REC-SVG-20010904/DTD/svg10.dtd">
<svg version="1.0" xmlns="http://www.w3.org/2000/svg"
 width="512.000000pt" height="512.000000pt" viewBox="0 0 512.000000 512.000000"
 preserveAspectRatio="xMidYMid meet">
<metadata>
Created by potrace 1.14, written by Peter Selinger 2001-2017
</metadata>
<g transform="translate(0.000000,512.000000) scale(0.100000,-0.100000)"
fill="#000000" stroke="none">
<path d="M2450 4383 c-56 -148 -129 -335 -160 -418 -31 -82 -71 -184 -87 -225
-16 -41 -72 -186 -124 -322 -52 -136 -96 -248 -99 -248 -3 0 -52 87 -110 192
-130 237 -159 290 -276 501 -52 93 -94 170 -94 172 0 2 -20 38 -45 79 -25 42
-45 78 -45 80 0 2 -25 47 -55 101 -30 53 -55 98 -55 100 0 2 -20 38 -45 79
-25 42 -45 81 -45 86 0 6 -4 10 -9 10 -4 0 -8 -48 -9 -107 0 -94 -5 -533 -17
-1413 -2 -135 -4 -355 -5 -489 -2 -203 -4 -241 -15 -230 -8 8 -84 113 -170
234 -86 121 -163 229 -171 240 -13 17 -46 64 -199 280 -8 11 -39 54 -68 95
-185 259 -410 576 -482 678 -27 39 -51 70 -52 68 -1 -1 10 -42 26 -92 16 -49
70 -217 121 -374 50 -157 100 -310 110 -340 10 -30 37 -113 60 -185 23 -71
105 -326 182 -565 77 -239 180 -561 230 -715 49 -154 101 -316 116 -360 14
-44 26 -82 27 -85 20 -81 52 -153 63 -146 5 3 48 12 97 20 106 19 111 20 280
52 167 31 185 34 215 40 14 3 50 9 80 15 30 6 66 12 80 15 14 2 61 11 105 20
44 9 96 18 115 20 19 3 43 7 52 10 9 3 25 6 35 8 10 2 36 7 58 11 22 4 51 9
65 11 14 3 97 18 185 35 263 51 229 49 385 19 30 -6 66 -13 80 -15 14 -2 86
-16 160 -30 74 -14 149 -28 165 -31 17 -3 53 -10 80 -15 28 -5 64 -12 80 -14
17 -3 75 -14 130 -25 110 -21 219 -41 250 -46 11 -2 34 -6 50 -9 17 -3 80 -15
140 -27 61 -11 119 -22 130 -24 11 -3 36 -7 55 -10 19 -3 63 -11 97 -18 61
-13 83 -8 83 19 0 5 27 91 59 190 32 99 95 295 141 435 151 470 262 814 302
940 22 69 50 157 63 195 26 81 56 174 190 590 53 165 109 340 126 389 16 49
28 91 26 92 -1 1 -45 -58 -97 -132 -52 -74 -168 -237 -257 -362 -90 -125 -167
-234 -173 -242 -42 -60 -361 -507 -367 -515 -5 -5 -40 -55 -78 -110 -38 -55
-73 -104 -78 -110 -32 -40 -87 -120 -87 -127 0 -4 -4 -8 -9 -8 -5 0 -10 87
-10 193 -2 188 -7 609 -15 1237 -3 173 -6 429 -7 568 -1 138 -5 252 -8 252 -5
-1 -94 -158 -242 -430 -36 -67 -197 -358 -232 -420 -18 -32 -84 -151 -142
-255 -12 -22 -52 -95 -89 -162 -37 -68 -70 -124 -74 -127 -4 -2 -135 329 -291
735 -156 406 -287 739 -291 739 -4 0 -53 -120 -110 -267z"/>
<path d="M2425 1149 c-71 -15 -143 -30 -160 -33 -16 -3 -163 -33 -325 -66
-375 -77 -588 -120 -620 -126 -65 -12 -314 -65 -316 -67 -5 -5 88 -382 96
-391 7 -7 69 0 175 20 11 2 45 7 75 10 30 3 57 7 60 9 3 2 26 6 50 10 25 3 70
10 100 15 30 5 69 12 85 14 133 21 664 106 700 113 33 5 43 7 125 19 78 12
190 7 260 -11 8 -2 29 -6 45 -9 17 -2 50 -8 75 -12 25 -4 54 -8 65 -10 11 -1
92 -14 180 -29 187 -30 214 -35 320 -50 31 -5 277 -45 305 -51 14 -2 43 -6 66
-9 22 -3 72 -11 110 -18 38 -7 82 -13 99 -13 l29 1 41 170 c23 94 45 182 48
197 7 28 7 28 -73 43 -30 6 -25 5 -220 45 -85 17 -164 34 -175 36 -11 2 -54
11 -95 19 -94 19 -107 22 -200 40 -103 21 -92 19 -315 64 -110 23 -256 53
-325 67 -69 14 -132 26 -140 28 -8 2 -73 -9 -145 -25z"/>
</g>
</svg>
